<svg width="207" height="136" viewBox="0 0 207 136" fill="none" xmlns="http://www.w3.org/2000/svg">
<path d="M90.6369 133.964V91.7772H105.576V103.098C105.576 109.667 106.257 114.282 107.617 116.943C108.978 119.603 111.345 120.933 114.72 120.933C117.332 120.933 119.427 119.847 121.006 117.676C122.638 115.504 123.455 112.599 123.455 108.961C123.455 105.867 122.883 102.5 121.74 98.8626C120.652 95.1706 119.318 92.1301 117.74 89.7411C116.216 87.3522 112.27 82.1399 105.903 74.1043C99.3175 65.8516 94.9364 59.2276 92.7594 54.2326C90.5824 49.1832 89.4939 43.2922 89.4939 36.5597C89.4939 28.5241 91.2899 21.9545 94.8819 16.8508C98.5284 11.7471 103.182 9.19531 108.842 9.19531C113.577 9.19531 117.713 11.0956 121.25 14.8962V11.2314H136.108V47.8801H121.25V38.5958C121.25 33.4921 120.597 29.8272 119.291 27.6011C117.985 25.3208 115.917 24.1806 113.087 24.1806C108.297 24.1806 105.903 27.1939 105.903 33.2206C105.903 36.6954 106.61 40.2789 108.025 43.9709C109.44 47.6086 111.917 51.5993 115.454 55.9428L123.128 65.3901C134.72 79.7238 140.517 93.406 140.517 106.437C140.517 114.961 138.421 122.019 134.231 127.612C130.094 133.204 124.924 136 118.72 136C113.658 136 109.277 134.045 105.576 130.136V133.964H90.6369Z" fill="white"/>
<path d="M162.481 26.4685V22.6679C162.481 20.4238 161.61 19.3017 159.869 19.3017C159.252 19.3017 158.943 19.4917 158.943 19.8718C158.943 20.0166 158.998 20.2337 159.107 20.5233C159.324 21.0481 159.433 21.5006 159.433 21.8807C159.433 22.5684 159.207 23.1566 158.753 23.6452C158.299 24.1158 157.674 24.3511 156.875 24.3511C156.005 24.3511 155.306 24.0886 154.78 23.5638C154.254 23.0208 153.991 22.315 153.991 21.4463C153.991 20.0166 154.626 18.8583 155.896 17.9715C157.184 17.0666 158.671 16.6141 160.359 16.6141C162.735 16.6141 164.576 17.2566 165.883 18.5416C167.207 19.8084 167.869 21.6092 167.869 23.9439V37.4632C167.869 38.2052 167.942 38.7753 168.087 39.1734C168.25 39.5535 168.595 39.7978 169.121 39.9064C169.556 39.9969 169.774 40.2322 169.774 40.6123V41.7796C169.774 42.7388 169.03 43.2184 167.542 43.2184C165.547 43.2184 164.168 42.2592 163.406 40.3408C161.665 42.3497 159.987 43.3541 158.372 43.3541C156.83 43.3541 155.56 42.7207 154.562 41.4538C153.565 40.1688 153.066 38.531 153.066 36.5402C153.066 31.4365 156.204 28.0793 162.481 26.4685ZM162.481 29.2376C159.923 30.1787 158.644 32.2509 158.644 35.4543C158.644 37.9699 159.306 39.2277 160.631 39.2277C161.211 39.2277 161.665 38.9472 161.991 38.3862C162.318 37.807 162.481 37.1736 162.481 36.4859V29.2376Z" fill="white"/>
<path d="M172.114 38.5491V21.6635C172.114 20.6681 171.724 19.9804 170.944 19.6003C170.617 19.4374 170.454 19.2021 170.454 18.8945V17.89C170.454 17.5643 170.654 17.3923 171.053 17.3742L177.502 17.1842V19.4103C179.044 17.7633 180.731 16.9399 182.564 16.9399C183.924 16.9399 184.985 17.4647 185.747 18.5144C186.527 19.5641 186.917 20.9305 186.917 22.6136V38.8748C186.917 39.4359 187.162 40.015 187.652 40.6123C187.888 40.9018 188.006 41.1009 188.006 41.2095V42.3497C188.006 42.6392 187.87 42.784 187.598 42.784H180.958C180.65 42.784 180.495 42.6392 180.495 42.3497V40.938C180.495 40.7932 180.595 40.6484 180.795 40.5037C181.285 40.1236 181.529 39.6711 181.529 39.1463V22.6136C181.529 21.2925 181.058 20.6319 180.114 20.6319C179.207 20.6319 178.337 21.1748 177.502 22.2607V38.8748C177.502 39.4902 177.711 40.0241 178.128 40.4765C178.328 40.6937 178.427 40.8475 178.427 40.938V42.4311C178.427 42.6664 178.3 42.784 178.046 42.784H171.298C171.008 42.784 170.862 42.6483 170.862 42.3768V40.938C170.862 40.8113 170.98 40.6575 171.216 40.4765C171.815 40.006 172.114 39.3635 172.114 38.5491Z" fill="white"/>
<path d="M200.605 18.2429V5.04938C200.605 4.05399 200.224 3.36626 199.462 2.98619C199.118 2.82331 198.945 2.58804 198.945 2.28037V1.27592C198.945 0.950153 199.154 0.78727 199.571 0.78727L205.993 0.570092V38.6305C205.993 39.4449 206.22 40.0331 206.673 40.3951C206.891 40.5761 207 40.8747 207 41.2909V42.4583C207 42.784 206.837 42.9469 206.51 42.9469H200.605V40.3679C199.136 42.2139 197.621 43.1369 196.061 43.1369C192.124 43.1369 190.156 39.2277 190.156 31.4093C190.156 21.5458 192.287 16.6141 196.551 16.6141C197.802 16.6141 199.154 17.157 200.605 18.2429ZM200.605 20.9305C199.843 20.3514 199.154 20.0618 198.537 20.0618C197.34 20.0618 196.605 20.9396 196.333 22.6951C196.079 24.4506 195.952 26.4143 195.952 28.586V33.4182C195.952 37.5989 196.714 39.6892 198.238 39.6892C199.09 39.6892 199.88 39.1282 200.605 38.0061V20.9305Z" fill="white"/>
<path d="M13.1979 3.71917V37.7346C13.1979 38.6757 13.5425 39.3816 14.2319 39.8521C14.7036 40.1598 14.9394 40.5218 14.9394 40.938V42.1596C14.9394 42.5759 14.7036 42.784 14.2319 42.784H5.74175C5.34264 42.784 5.14308 42.594 5.14308 42.2139V40.938C5.14308 40.5399 5.37892 40.1779 5.85059 39.8521C6.53997 39.3635 6.88465 38.6576 6.88465 37.7346V3.71917H5.68732C4.79839 3.71917 4.13623 4.05399 3.70084 4.72362C3.28359 5.39325 2.90262 6.86825 2.55793 9.14861C2.52165 9.45628 2.33117 9.61012 1.98648 9.61012H0.92521C0.308403 9.61012 0 9.3477 0 8.82285V0.923006C0 0.307669 0.290262 0 0.870786 0C1.23361 0 1.87763 0.0723926 2.80284 0.217178C4.29044 0.452454 5.4152 0.570092 6.17714 0.570092H15.8102C16.3 0.497699 16.8987 0.398159 17.6062 0.271472C18.6947 0.108589 19.2934 0.0271472 19.4022 0.0271472C19.892 0.0271472 20.1369 0.253374 20.1369 0.705828V8.82285C20.1369 9.3477 19.9011 9.61012 19.4294 9.61012H18.3954C17.9781 9.61012 17.7241 9.49248 17.6334 9.2572C17.5609 9.02193 17.4339 8.43374 17.2524 7.49263C16.9259 5.93619 16.5903 4.9227 16.2456 4.45215C15.9009 3.9635 15.2932 3.71917 14.4224 3.71917H13.1979Z" fill="white"/>
<path d="M28.4094 21.935V38.8748C28.4094 39.4902 28.618 40.0241 29.0353 40.4765C29.2348 40.6937 29.3346 40.8475 29.3346 40.938V42.4311C29.3346 42.6664 29.2076 42.784 28.9536 42.784H22.205C21.9148 42.784 21.7697 42.6483 21.7697 42.3768V40.938C21.7697 40.8113 21.8876 40.6575 22.1234 40.4765C22.7221 40.006 23.0214 39.3635 23.0214 38.5491V5.37515C23.0214 4.37975 22.6314 3.69202 21.8513 3.31196C21.5247 3.14908 21.3615 2.9138 21.3615 2.60613V1.27592C21.3615 0.950153 21.561 0.78727 21.9601 0.78727L28.4094 0.570092V19.0845C30.1328 17.5824 31.8018 16.8313 33.4164 16.8313C36.3916 16.8313 37.8792 18.6049 37.8792 22.1521V38.8748C37.8792 39.4359 38.115 40.015 38.5867 40.6123C38.8225 40.9018 38.9405 41.1009 38.9405 41.2095V42.3497C38.9405 42.6392 38.8044 42.784 38.5323 42.784H31.8925C31.6023 42.784 31.4571 42.6392 31.4571 42.3497V40.938C31.4571 40.7932 31.5569 40.6484 31.7565 40.5037C32.2463 40.1236 32.4912 39.6711 32.4912 39.1463V22.3965C32.4912 21.0934 31.956 20.4419 30.8857 20.4419C30.0149 20.4419 29.1895 20.9396 28.4094 21.935Z" fill="white"/>
<path d="M49.145 16.6141C54.8777 16.6141 57.744 21.1115 57.744 30.1063C57.744 34.3412 57.0365 37.608 55.6215 39.9064C54.2064 42.2049 52.1655 43.3541 49.4987 43.3541C46.7957 43.3541 44.7094 42.232 43.24 39.9879C41.7887 37.7256 41.063 34.3774 41.063 29.9434C41.063 25.3103 41.8249 21.935 43.3488 19.8175C44.8727 17.6819 46.8047 16.6141 49.145 16.6141ZM51.7846 27.3916C51.7846 24.2968 51.5941 22.1793 51.2131 21.0391C50.8321 19.8808 50.2153 19.3017 49.3627 19.3017C47.7844 19.3017 46.9952 21.4916 46.9952 25.8713V32.0066C46.9952 35.2642 47.1676 37.5265 47.5123 38.7934C47.8751 40.0422 48.5282 40.6665 49.4715 40.6665C50.2698 40.6665 50.8503 40.1869 51.2131 39.2277C51.5941 38.2504 51.7846 36.4587 51.7846 33.8526V27.3916Z" fill="white"/>
<path d="M70.4248 37.7889V20.9848C70.4248 20.5685 70.1799 20.1432 69.6901 19.7089C69.418 19.4555 69.2819 19.2564 69.2819 19.1116V17.7814C69.2819 17.4557 69.4543 17.2928 69.7989 17.2928L75.8128 17.1842V39.092C75.8128 39.5264 76.0577 39.9607 76.5475 40.3951C76.8378 40.6484 76.9829 40.8475 76.9829 40.9923V42.2954C76.9829 42.6211 76.8015 42.7931 76.4387 42.8112L70.4248 42.9198V40.7751C68.4656 42.3497 66.7875 43.1369 65.3906 43.1369C63.9937 43.1369 62.9052 42.6845 62.1251 41.7796C61.3632 40.8566 60.9822 39.653 60.9822 38.169V20.9848C60.9822 20.5685 60.7373 20.1432 60.2475 19.7089C59.9572 19.4555 59.8121 19.2564 59.8121 19.1116V17.7814C59.8121 17.4557 59.9935 17.2928 60.3564 17.2928L66.3702 17.1842V37.4632C66.3702 38.7662 66.8691 39.4178 67.8669 39.4178C68.7377 39.4178 69.5903 38.8748 70.4248 37.7889Z" fill="white"/>
<path d="M14.4572 128.915V96.7723C14.4572 95.8493 14.1125 95.1525 13.4232 94.6819C12.9515 94.3743 12.7157 94.0032 12.7157 93.5689V92.3744C12.7157 91.9582 12.9515 91.75 13.4232 91.75H23.2467L26.3217 111.54L29.3966 91.75H39.3291C39.7282 91.75 39.9277 91.9401 39.9277 92.3201V93.5689C39.9277 93.9851 39.6919 94.3562 39.2202 94.6819C38.5308 95.1706 38.1861 95.8674 38.1861 96.7723V128.915C38.1861 129.856 38.5399 130.562 39.2474 131.032C39.701 131.34 39.9277 131.702 39.9277 132.118V133.34C39.9277 133.756 39.6919 133.964 39.2202 133.964H31.0294C30.6484 133.964 30.4579 133.774 30.4579 133.394V132.118C30.4579 131.72 30.6847 131.358 31.1382 131.032C31.8457 130.543 32.1995 129.838 32.1995 128.915V96.0121L26.3217 133.964H24.1447L18.3486 96.0121V128.915C18.3486 129.856 18.6932 130.562 19.3826 131.032C19.8543 131.34 20.0901 131.702 20.0901 132.118V133.34C20.0901 133.756 19.8543 133.964 19.3826 133.964H13.3143C12.9152 133.964 12.7157 133.774 12.7157 133.394V132.118C12.7157 131.72 12.9515 131.358 13.4232 131.032C14.1125 130.543 14.4572 129.838 14.4572 128.915Z" fill="white"/>
<path d="M45.6423 94.0032C46.5856 94.0032 47.3748 94.32 48.0097 94.9534C48.6446 95.5868 48.9621 96.356 48.9621 97.2609C48.9621 98.1477 48.6446 98.9078 48.0097 99.5413C47.3748 100.175 46.6128 100.491 45.7239 100.491C44.8168 100.491 44.0458 100.175 43.4109 99.5413C42.7759 98.9078 42.4584 98.1477 42.4584 97.2609C42.4584 96.3198 42.785 95.5416 43.4381 94.9262C44.1093 94.3109 44.844 94.0032 45.6423 94.0032ZM48.4723 108.364V129.648C48.4723 130.589 48.8623 131.258 49.6424 131.656C49.969 131.837 50.1322 132.1 50.1322 132.444V133.448C50.1322 133.792 49.9327 133.964 49.5336 133.964H42.023C41.6239 133.964 41.4244 133.792 41.4244 133.448V132.444C41.4244 132.082 41.5967 131.819 41.9414 131.656C42.7033 131.276 43.0843 130.607 43.0843 129.648V112.843C43.0843 111.866 42.6943 111.178 41.9142 110.78C41.5877 110.599 41.4244 110.364 41.4244 110.074V109.07C41.4244 108.744 41.6239 108.572 42.023 108.554L48.4723 108.364Z" fill="white"/>
<path d="M58.051 91.75V129.648C58.051 130.589 58.441 131.258 59.2211 131.656C59.5476 131.837 59.7109 132.1 59.7109 132.444V133.448C59.7109 133.792 59.5113 133.964 59.1122 133.964H51.6017C51.2026 133.964 51.003 133.792 51.003 133.448V132.444C51.003 132.082 51.1754 131.819 51.5201 131.656C52.282 131.276 52.663 130.607 52.663 129.648V96.2293C52.663 95.252 52.2729 94.5643 51.4928 94.1661C51.1663 94.0032 51.003 93.768 51.003 93.4603V92.4558C51.003 92.1301 51.2026 91.9672 51.6017 91.9672L58.051 91.75Z" fill="white"/>
<path d="M76.3102 127.34C75.893 132.136 73.7251 134.534 69.8066 134.534C67.2123 134.534 65.1533 133.439 63.6294 131.249C62.1055 129.059 61.3436 125.784 61.3436 121.422C61.3436 117.187 62.0602 113.857 63.4934 111.432C64.9447 109.007 66.8858 107.794 69.3167 107.794C71.4756 107.794 73.2171 108.735 74.5415 110.617C75.8658 112.5 76.5279 114.988 76.5279 118.083V120.363C76.5279 120.798 76.3012 121.015 75.8476 121.015H67.3575V123.241C67.3575 125.684 67.5933 127.557 68.065 128.86C68.5367 130.163 69.3621 130.815 70.5413 130.815C71.92 130.815 72.8725 129.494 73.3986 126.851L76.3102 127.34ZM71.3032 118.029V114.282C71.3032 111.676 70.632 110.373 69.2895 110.373C68.0015 110.373 67.3575 112.038 67.3575 115.368V118.029H71.3032Z" fill="white"/>
</svg>
