<svg width="20" height="20" viewBox="0 0 20 20" fill="none" xmlns="http://www.w3.org/2000/svg">
<path d="M18.348 9.16406C18.0617 8.78398 16.998 8.52227 16.548 7.83828C16.098 7.1543 15.7297 5.67305 14.5844 5.10391C13.4391 4.53477 11.25 4.375 9.99999 4.375C8.74999 4.375 6.56249 4.53125 5.41562 5.10273C4.26874 5.67422 3.90195 7.1543 3.45195 7.83711C3.00195 8.51992 1.93827 8.78398 1.65195 9.16406C1.36562 9.54414 1.16406 11.9469 1.28671 13.125C1.40937 14.3031 1.63827 15 1.63827 15H4.99765C5.54765 15 5.72656 14.7934 6.85156 14.6875C8.08593 14.5703 9.29687 14.5312 9.99999 14.5312C10.7031 14.5312 11.9531 14.5703 13.1867 14.6875C14.3117 14.7941 14.4965 15 15.0406 15H18.3609C18.3609 15 18.5898 14.3031 18.7125 13.125C18.8352 11.9469 18.6328 9.54414 18.348 9.16406ZM15.625 15H17.8125V15.625H15.625V15ZM2.18749 15H4.37499V15.625H2.18749V15Z" stroke="#B7B7B7" stroke-width="1.25" stroke-linecap="round" stroke-linejoin="round"/>
<path d="M14.2371 12.0766C14.0063 11.8098 13.2539 11.5871 12.2578 11.4379C11.2617 11.2887 10.8985 11.25 10.0078 11.25C9.1172 11.25 8.71212 11.3141 7.75743 11.4379C6.80275 11.5617 6.08595 11.782 5.77853 12.0766C5.3172 12.5234 5.99298 13.025 6.52345 13.0859C7.03751 13.1445 8.06525 13.123 10.0121 13.123C11.959 13.123 12.9867 13.1445 13.5008 13.0859C14.0305 13.0215 14.6578 12.5547 14.2371 12.0766ZM16.8582 9.49414C16.856 9.46311 16.8425 9.43399 16.8201 9.41236C16.7978 9.39074 16.7682 9.37813 16.7371 9.37695C16.2758 9.36054 15.8074 9.39336 14.9766 9.63828C14.5527 9.76205 14.1546 9.96134 13.8016 10.2266C13.7125 10.2961 13.7442 10.484 13.8559 10.5039C14.5407 10.5843 15.2296 10.6247 15.9192 10.625C16.3328 10.625 16.7598 10.5078 16.8391 10.1391C16.8795 9.92645 16.886 9.70877 16.8582 9.49414ZM3.14181 9.49414C3.144 9.46311 3.15758 9.43399 3.17993 9.41236C3.20227 9.39074 3.23182 9.37813 3.2629 9.37695C3.72423 9.36054 4.19259 9.39336 5.02345 9.63828C5.44734 9.76205 5.84539 9.96134 6.19845 10.2266C6.28751 10.2961 6.25587 10.484 6.14415 10.5039C5.45932 10.5843 4.7704 10.6247 4.08087 10.625C3.6672 10.625 3.24025 10.5078 3.16095 10.1391C3.12052 9.92645 3.11406 9.70877 3.14181 9.49414Z" fill="#B7B7B7"/>
<path d="M16.875 7.5H17.5M2.5 7.5H3.125M3.04688 8.24219C3.04688 8.24219 4.85742 7.77344 10 7.77344C15.1426 7.77344 16.9531 8.24219 16.9531 8.24219" stroke="#B7B7B7" stroke-width="1.25" stroke-linecap="round" stroke-linejoin="round"/>
</svg>
