<svg width="20" height="20" viewBox="0 0 20 20" fill="none" xmlns="http://www.w3.org/2000/svg">
<path d="M5.85 14.417L9.75 10.517L13.65 14.417L14.417 13.65L10.517 9.75L14.417 5.85L13.65 5.083L9.75 8.983L5.85 5.083L5.083 5.85L8.983 9.75L5.083 13.65L5.85 14.417ZM9.75325 19.5C8.40558 19.5 7.13808 19.2443 5.95075 18.733C4.76414 18.2209 3.73172 17.5262 2.8535 16.6487C1.97528 15.7712 1.28014 14.7398 0.768083 13.5547C0.256028 12.3695 0 11.1024 0 9.75325C0 8.40414 0.256028 7.13664 0.768083 5.95075C1.27942 4.76414 1.97311 3.73172 2.84917 2.8535C3.72522 1.97528 4.75692 1.28014 5.94425 0.768083C7.13158 0.256028 8.39908 0 9.74675 0C11.0944 0 12.3619 0.256028 13.5493 0.768083C14.7359 1.27942 15.7683 1.97347 16.6465 2.85025C17.5247 3.72703 18.2199 4.75872 18.7319 5.94533C19.244 7.13194 19.5 8.39908 19.5 9.74675C19.5 11.0944 19.2443 12.3619 18.733 13.5493C18.2217 14.7366 17.5269 15.769 16.6487 16.6465C15.7704 17.524 14.7391 18.2191 13.5547 18.7319C12.3702 19.2447 11.1031 19.5007 9.75325 19.5ZM9.75 18.4167C12.1694 18.4167 14.2188 17.5771 15.8979 15.8979C17.5771 14.2188 18.4167 12.1694 18.4167 9.75C18.4167 7.33056 17.5771 5.28125 15.8979 3.60208C14.2188 1.92292 12.1694 1.08333 9.75 1.08333C7.33056 1.08333 5.28125 1.92292 3.60208 3.60208C1.92292 5.28125 1.08333 7.33056 1.08333 9.75C1.08333 12.1694 1.92292 14.2188 3.60208 15.8979C5.28125 17.5771 7.33056 18.4167 9.75 18.4167Z" fill="#D32A0C"/>
</svg>
