<svg width="33" height="33" viewBox="0 0 33 33" fill="none" xmlns="http://www.w3.org/2000/svg">
<path fill-rule="evenodd" clip-rule="evenodd" d="M14.5 0.333496C12.241 0.333689 10.0148 0.874103 8.00709 1.90965C5.99941 2.9452 4.26848 4.44586 2.95872 6.28642C1.64896 8.12698 0.798345 10.2541 0.477842 12.4902C0.15734 14.7264 0.376244 17.0068 1.11629 19.1411C1.85634 21.2755 3.09607 23.2019 4.73206 24.7597C6.36804 26.3175 8.35284 27.4615 10.5209 28.0962C12.6889 28.7309 14.9772 28.8379 17.195 28.4084C19.4128 27.9788 21.4957 27.0251 23.27 25.6268L29.3567 31.7135C29.671 32.0171 30.092 32.1851 30.529 32.1813C30.966 32.1775 31.384 32.0022 31.693 31.6932C32.002 31.3842 32.1773 30.9662 32.1811 30.5292C32.1849 30.0922 32.0169 29.6712 31.7133 29.3568L25.6267 23.2702C27.2733 21.1812 28.2986 18.6708 28.5852 16.0264C28.8717 13.3819 28.408 10.7102 27.247 8.31699C26.0861 5.92377 24.2748 3.90576 22.0205 2.49388C19.7662 1.08201 17.1599 0.333318 14.5 0.333496ZM3.66666 14.5002C3.66666 11.627 4.80803 8.87148 6.83967 6.83984C8.87132 4.8082 11.6268 3.66683 14.5 3.66683C17.3732 3.66683 20.1287 4.8082 22.1603 6.83984C24.192 8.87148 25.3333 11.627 25.3333 14.5002C25.3333 17.3733 24.192 20.1288 22.1603 22.1605C20.1287 24.1921 17.3732 25.3335 14.5 25.3335C11.6268 25.3335 8.87132 24.1921 6.83967 22.1605C4.80803 20.1288 3.66666 17.3733 3.66666 14.5002Z" fill="white"/>
</svg>
