<svg width="30" height="30" viewBox="0 0 30 30" fill="none" xmlns="http://www.w3.org/2000/svg">
<path d="M8.75 22.5C8.75 22.5 5 12.5 5 7.5C5 2.5 7.5 2.5 7.5 2.5H8.75C8.75 2.5 10 2.5 10 3.75C10 5 8.75 5 8.75 7.5C8.75 10 12.5 12.5 12.5 16.25C12.5 20 8.75 22.5 8.75 22.5ZM15 21.25C13.75 21.25 10 24.375 10 24.375C9.625 24.625 9.75 25 10 25.375C10 25.375 11.25 27.625 13.75 27.625H21.25C22.625 27.625 23.75 26.5 23.75 25.125V23.875C23.75 22.5 22.625 21.375 21.25 21.375H15V21.25Z" fill="#5C5C5C"/>
</svg>
