<svg width="20" height="20" viewBox="0 0 20 20" fill="none" xmlns="http://www.w3.org/2000/svg">
<path d="M15 13.75L17.5 1.66666C17.5 1.66666 13.125 2.5 13.125 4.16666C13.125 5.20833 14.7917 5.83333 14.1667 6.45833C13.5417 7.08333 11.25 7.70833 11.25 9.375C11.25 10.4167 11.9333 11.1917 11.25 11.875C10.625 12.5 10 12.1725 8.95833 11.875C7.79166 11.5417 5.41666 11.25 4.58333 11.4583C3.75 11.6667 2.91666 12.0833 2.91666 13.3333C2.91666 14.0208 3.33333 14.7917 4.375 15C5.41666 15.2083 6.66666 14.1667 8.33333 14.1667C10 14.1667 12.0833 15.4167 13.3333 15.4167C14.5833 15.4167 15 13.75 15 13.75Z" fill="#B7B7B7" stroke="#B7B7B7" stroke-width="1.66667" stroke-linejoin="round"/>
<path d="M4.58333 15L3.33333 18.3333H17.0833L14.5833 15" stroke="#B7B7B7" stroke-width="1.66667" stroke-linejoin="round"/>
</svg>
